<svg width="14" height="31" viewBox="0 0 14 31" fill="none" xmlns="http://www.w3.org/2000/svg">
<path d="M4.61498 2.12498C5.84477 1.09257 7.40984 0.545876 9.01498 0.587996C10.675 0.572996 12.335 0.581991 13.995 0.582991C14.001 2.33366 14.001 4.08496 13.995 5.83696C12.922 5.83696 11.849 5.83696 10.776 5.83696C10.4315 5.82415 10.0933 5.93177 9.81957 6.14128C9.54582 6.35079 9.35361 6.64911 9.27598 6.98497C9.25998 8.15697 9.26998 9.32896 9.27098 10.501C10.845 10.508 12.418 10.501 13.992 10.501C13.876 12.201 13.666 13.884 13.419 15.565C12.029 15.578 10.639 15.565 9.24898 15.572C9.23698 20.572 9.25498 25.572 9.23898 30.572C7.17498 30.581 5.10898 30.572 3.04498 30.578C3.00498 25.578 3.04498 20.578 3.02298 15.578C2.01598 15.567 1.00798 15.585 0.000976562 15.569C0.000976562 13.888 0.000976562 12.207 0.000976562 10.527C1.00698 10.515 2.01498 10.527 3.02098 10.52C3.05198 8.886 2.98998 7.24998 3.05298 5.61998C3.1185 4.30069 3.67577 3.05379 4.61498 2.12498Z" fill="#3D58A6"/>
</svg>
