<svg width="101" height="31" viewBox="0 0 101 31" fill="none" xmlns="http://www.w3.org/2000/svg">
<path d="M7.44 24.765C7.25597 24.7419 7.08064 24.6732 6.93 24.565L1.121 18.965C0.891677 18.7883 0.68629 18.5826 0.509997 18.353C0.36715 18.2014 0.246913 18.0299 0.152997 17.844C0.0472733 17.6361 -0.00529237 17.4052 -3.08838e-06 17.172V16.357C-0.00380903 16.1271 0.0487202 15.8999 0.152997 15.695C0.305997 15.495 0.407997 15.287 0.509997 15.185L1.121 14.574L6.879 8.816C7.02859 8.71245 7.20711 8.6589 7.389 8.66299C7.48324 8.65769 7.57751 8.67281 7.66537 8.70733C7.75322 8.74185 7.83258 8.79495 7.898 8.86299C8.01569 9.00828 8.08555 9.18643 8.098 9.373V10.545C8.098 10.645 8.047 10.698 8.047 10.745C8.03407 10.82 7.99928 10.8896 7.947 10.945C7.92126 11.0006 7.88758 11.0521 7.847 11.098C7.847 11.149 7.796 11.198 7.695 11.298L7.542 11.451C7.46061 11.5011 7.3921 11.5696 7.342 11.651C7.242 11.751 7.142 11.804 7.142 11.851L2.65 16.51C2.55 16.61 2.45 16.71 2.45 16.816C2.45388 16.88 2.47437 16.9418 2.50944 16.9955C2.54451 17.0492 2.59295 17.0928 2.65 17.122L7.134 21.555C7.19087 21.6177 7.25863 21.6695 7.334 21.708C7.434 21.808 7.487 21.86 7.534 21.86L7.687 22.013L7.839 22.166C7.89 22.217 7.89 22.266 7.939 22.319C7.988 22.372 7.99 22.472 8.039 22.519C8.039 22.57 8.09 22.672 8.09 22.719V24C8.09544 24.0943 8.08038 24.1886 8.04585 24.2764C8.01132 24.3643 7.95815 24.4437 7.89 24.509C7.84257 24.5861 7.77647 24.6499 7.69782 24.6947C7.61916 24.7394 7.53048 24.7636 7.44 24.765Z" fill="#EE4036"/>
<path d="M13.045 30.574C12.945 30.574 12.845 30.421 12.845 30.166V30.014L17.533 0.613998C17.633 0.206998 17.733 0.00299835 17.89 0.00299835H20.642C20.794 0.00299835 20.842 0.155997 20.842 0.410997V0.563997L16.154 29.964C16.054 30.371 15.954 30.575 15.798 30.575L13.045 30.574Z" fill="#EE4036"/>
<path d="M25.275 27.16C25.1998 27.1669 25.1241 27.1568 25.0534 27.1303C24.9828 27.1038 24.919 27.0616 24.867 27.007C24.767 26.907 24.767 26.701 24.767 26.396V4.229C24.7502 4.02024 24.7845 3.81053 24.867 3.618C24.919 3.56336 24.9828 3.52122 25.0534 3.49472C25.1241 3.46822 25.1998 3.45806 25.275 3.465H28.175C28.2501 3.45806 28.3258 3.46822 28.3965 3.49472C28.4672 3.52122 28.5309 3.56336 28.583 3.618C28.683 3.718 28.683 3.924 28.683 4.229V12.994C28.6696 13.0823 28.6877 13.1726 28.734 13.249C28.785 13.349 28.834 13.349 28.887 13.349H34.849C34.9 13.349 34.949 13.298 35.001 13.249C35.052 13.149 35.101 13.096 35.101 12.994V4.229C35.0753 4.01346 35.1298 3.79601 35.254 3.618C35.306 3.56336 35.3697 3.52122 35.4404 3.49472C35.5111 3.46822 35.5868 3.45806 35.662 3.465H38.617C38.6846 3.45808 38.7528 3.46849 38.8153 3.49526C38.8777 3.52203 38.9323 3.56427 38.974 3.618C39.074 3.718 39.074 3.924 39.074 4.229V26.4C39.0907 26.6088 39.0564 26.8185 38.974 27.011C38.9291 27.0608 38.8739 27.1003 38.8123 27.1267C38.7506 27.1532 38.684 27.1659 38.617 27.164H35.67C35.5816 27.1773 35.4914 27.1593 35.415 27.113L35.215 26.913C35.1472 26.752 35.1131 26.5787 35.115 26.404V16.306C35.115 16.051 35.064 15.95 34.915 15.95H28.893C28.74 15.95 28.693 16.05 28.693 16.306V26.4C28.7186 26.6155 28.6642 26.833 28.54 27.011C28.4879 27.0656 28.4242 27.1078 28.3535 27.1343C28.2828 27.1608 28.2071 27.1709 28.132 27.164L25.275 27.16Z" fill="#EE4036"/>
<path d="M46.473 27.16C46.4054 27.1669 46.3371 27.1565 46.2747 27.1297C46.2122 27.103 46.1576 27.0607 46.116 27.007C45.9918 26.829 45.9373 26.6115 45.963 26.396V6.522C45.963 6.268 45.912 6.115 45.763 6.115H41.993C41.9423 6.115 41.8913 6.064 41.84 5.962C41.7916 5.81413 41.7743 5.65788 41.789 5.503V4.178C41.7695 3.98566 41.8041 3.7917 41.889 3.618C41.9409 3.5635 42.0045 3.52144 42.075 3.49494C42.1455 3.46845 42.221 3.45822 42.296 3.465H53.556C53.6234 3.45825 53.6915 3.46875 53.7538 3.49552C53.816 3.52228 53.8705 3.56443 53.912 3.618C54.012 3.718 54.012 3.924 54.012 4.178V5.5C54.0269 5.676 53.9923 5.85267 53.912 6.01C53.7909 6.08701 53.6479 6.12214 53.505 6.11H50.091C49.938 6.11 49.891 6.263 49.891 6.517V26.4C49.9148 26.6315 49.8609 26.8644 49.738 27.062C49.6859 27.1166 49.6222 27.1588 49.5515 27.1853C49.4809 27.2118 49.4051 27.2219 49.33 27.215H46.473V27.16Z" fill="#EE4036"/>
<path d="M56.919 27.16C56.613 27.16 56.46 26.905 56.46 26.345V26.245L57.377 4.333C57.377 3.722 57.577 3.416 57.887 3.416H61.046C61.2278 3.4119 61.4064 3.46546 61.556 3.569C61.6455 3.64495 61.7188 3.73824 61.7714 3.84324C61.824 3.94824 61.8548 4.06279 61.862 4.18L65.225 19.773C65.2307 19.811 65.2486 19.846 65.276 19.873H65.376C65.427 19.873 65.427 19.822 65.427 19.773L68.792 4.28C68.892 3.771 69.149 3.465 69.556 3.465H72.766C73.072 3.465 73.225 3.822 73.225 4.382L74.142 26.294V26.394C74.142 26.903 73.989 27.209 73.633 27.209H71.442C71.136 27.209 70.932 26.903 70.932 26.343L70.321 9.323C70.321 9.272 70.321 9.223 70.27 9.223C70.219 9.223 70.219 9.223 70.17 9.274L66.55 26.4C66.45 26.909 66.193 27.215 65.887 27.215H64.613C64.308 27.215 64.053 26.96 63.951 26.4L60.435 9.38C60.435 9.329 60.384 9.28 60.335 9.329V9.429L59.673 26.296C59.673 26.907 59.52 27.162 59.214 27.162L56.919 27.16Z" fill="#EE4036"/>
<path d="M78.9321 27.16C78.8646 27.1673 78.7963 27.1571 78.734 27.1303C78.6716 27.1035 78.6172 27.061 78.5761 27.007C78.4761 26.907 78.4761 26.701 78.4761 26.396V4.229C78.4593 4.02024 78.4936 3.81053 78.5761 3.618C78.6207 3.56808 78.6756 3.52852 78.7371 3.50209C78.7986 3.47566 78.8652 3.463 78.9321 3.465H81.8881C81.9555 3.45825 82.0236 3.46875 82.0858 3.49551C82.1481 3.52228 82.2026 3.56442 82.2441 3.618C82.3441 3.718 82.3441 3.924 82.3441 4.229V24.205C82.3441 24.459 82.4441 24.561 82.5991 24.561H87.7991C87.9254 24.5554 88.0501 24.5904 88.1551 24.661C88.2551 24.761 88.2551 24.916 88.2551 25.171V26.5C88.2615 26.6916 88.2274 26.8824 88.1551 27.06C88.107 27.1023 88.0501 27.1332 87.9885 27.1505C87.9268 27.1678 87.8621 27.1711 87.7991 27.16H78.9321Z" fill="#EE4036"/>
<path d="M92.8431 24.765C92.7559 24.7748 92.6677 24.7614 92.5873 24.7263C92.5069 24.6912 92.4371 24.6356 92.3851 24.565C92.2676 24.42 92.1977 24.2422 92.1851 24.056V22.931C92.1785 22.8604 92.1965 22.7898 92.2361 22.731C92.2361 22.68 92.2871 22.631 92.2871 22.578C92.3064 22.5579 92.3211 22.5338 92.3299 22.5073C92.3387 22.4808 92.3415 22.4527 92.3381 22.425C92.3381 22.374 92.3891 22.325 92.4381 22.272C92.4871 22.219 92.5381 22.172 92.5381 22.119C92.5381 22.066 92.5891 22.068 92.6381 21.966L92.7911 21.814C92.8411 21.814 92.8911 21.763 92.9431 21.661C93.0451 21.6097 93.0961 21.5587 93.0961 21.508L97.5801 16.922C97.6247 16.8838 97.6612 16.837 97.6874 16.7844C97.7137 16.7319 97.7292 16.6746 97.7331 16.616C97.7291 16.552 97.7085 16.4902 97.6735 16.4366C97.6384 16.3829 97.59 16.3393 97.5331 16.31L93.1001 11.873C93.0231 11.7967 92.9375 11.7296 92.8451 11.673C92.7451 11.573 92.6451 11.52 92.6451 11.473L92.4921 11.32C92.3921 11.22 92.3391 11.168 92.3391 11.12C92.3391 11.072 92.2881 11.02 92.2391 10.92C92.1901 10.82 92.1881 10.767 92.1391 10.665V9.27399C92.1354 9.09234 92.2026 8.9164 92.3263 8.78335C92.45 8.6503 92.6206 8.57056 92.8021 8.561C92.9895 8.56777 93.1691 8.63833 93.3111 8.761L99.1201 14.417L99.7321 15.028C99.8551 15.1646 99.9563 15.3194 100.032 15.487C100.131 15.6938 100.183 15.9198 100.185 16.149V17.219C100.185 17.27 100.134 17.372 100.134 17.419C100.099 17.4798 100.082 17.5489 100.083 17.619C100.083 17.67 100.032 17.719 99.9831 17.819C99.9571 17.8745 99.9234 17.926 99.8831 17.972C99.8419 18.0456 99.7904 18.113 99.7301 18.172L99.5771 18.324L99.3771 18.524C99.2771 18.624 99.1771 18.677 99.1771 18.724L93.4001 24.51C93.2514 24.6597 93.0535 24.7503 92.8431 24.765Z" fill="#EE4036"/>
</svg>
