<svg width="26" height="31" viewBox="0 0 26 31" fill="none" xmlns="http://www.w3.org/2000/svg">
<path d="M16.6049 24.94V21.4C16.6049 20.648 16.3866 20.272 15.9499 20.272C15.808 20.2791 15.669 20.3147 15.5412 20.3768C15.4134 20.4388 15.2993 20.5259 15.2059 20.633V25.686C15.2995 25.7927 15.4136 25.8797 15.5414 25.9415C15.6692 26.0034 15.8081 26.0389 15.9499 26.046C16.3859 26.046 16.6043 25.6793 16.6049 24.946V24.94ZM20.7549 22.188H22.2439V21.421C22.2439 20.6537 21.9956 20.2703 21.4989 20.271C21.0023 20.2717 20.7543 20.655 20.7549 21.421V22.188ZM7.87493 16.188V17.767H6.07493V27.309H4.39993V17.767H2.64093V16.188H7.87493ZM12.4089 19.03V27.309H10.8999V26.409C10.7035 26.6912 10.4486 26.9278 10.1528 27.1029C9.85687 27.278 9.52681 27.3875 9.18493 27.424C8.97811 27.4468 8.76989 27.396 8.59674 27.2806C8.42359 27.1653 8.29656 26.9927 8.23793 26.793C8.12824 26.3968 8.08266 25.9856 8.10293 25.575V19.03H9.59093V25.121C9.58158 25.3166 9.58927 25.5127 9.61393 25.707C9.62893 25.933 9.74193 26.045 9.95193 26.045C10.2533 26.045 10.5693 25.8116 10.8999 25.345V19.03H12.4089ZM18.0929 21.53V24.823C18.1185 25.3767 18.0653 25.9312 17.9349 26.47C17.8848 26.746 17.7358 26.9944 17.5159 27.1687C17.296 27.343 17.0202 27.4312 16.7399 27.417C16.4309 27.3895 16.1321 27.2921 15.8664 27.132C15.6006 26.9719 15.3747 26.7533 15.2059 26.493V27.305H13.6949V16.188H15.2059V19.82C15.3749 19.5618 15.6013 19.3463 15.8674 19.1901C16.1335 19.034 16.4321 18.9415 16.7399 18.92C17.0202 18.9057 17.296 18.994 17.5159 19.1683C17.7358 19.3425 17.8848 19.5909 17.9349 19.867C18.0657 20.4125 18.1189 20.9737 18.0929 21.534V21.53ZM23.7549 24.44V24.64C23.7607 24.964 23.7457 25.288 23.7099 25.61C23.6676 25.9321 23.5516 26.2401 23.3709 26.51C23.1748 26.8033 22.9057 27.0406 22.5901 27.1984C22.2745 27.3562 21.9233 27.4291 21.5709 27.41C21.2197 27.4262 20.8698 27.3567 20.5515 27.2074C20.2331 27.0581 19.956 26.8334 19.7439 26.553C19.381 25.9743 19.2147 25.2938 19.2699 24.613V21.704C19.2169 21.0263 19.3744 20.3488 19.7209 19.764C19.9295 19.4853 20.2029 19.2616 20.5174 19.1122C20.8319 18.9629 21.1781 18.8925 21.5259 18.907C21.8677 18.8894 22.2083 18.9588 22.5159 19.1087C22.8236 19.2586 23.0881 19.484 23.2849 19.764C23.6439 20.3443 23.8098 21.0235 23.7589 21.704V23.418H20.7589V24.9C20.7589 25.6667 21.0146 26.05 21.5259 26.05C21.6921 26.0569 21.8546 26.0002 21.9803 25.8912C22.106 25.7823 22.1852 25.6295 22.2019 25.464C22.2019 25.449 22.2019 25.396 22.2139 25.306C22.2259 25.216 22.2249 25.092 22.2249 24.934V24.449L23.7549 24.44ZM13.5819 5.85303V9.37201C13.5819 10.1393 13.3413 10.523 12.8599 10.523C12.3786 10.523 12.1379 10.1393 12.1379 9.37201V5.85303C12.1379 5.07169 12.3786 4.68103 12.8599 4.68103C13.3413 4.68103 13.5819 5.07299 13.5819 5.85699V5.85303ZM25.5999 21.94C25.6572 19.9758 25.5135 18.0109 25.1709 16.076C25.0325 15.4341 24.6926 14.8533 24.2009 14.418C23.726 13.9841 23.1261 13.7114 22.4869 13.639C19.3965 13.3714 16.2946 13.2586 13.1929 13.301C10.0992 13.2589 7.00534 13.3716 3.92292 13.639C3.27888 13.7066 2.67371 13.9798 2.19693 14.418C1.71138 14.8564 1.37619 15.4364 1.23893 16.076C0.884202 18.0095 0.732715 19.9749 0.786931 21.94C0.728307 23.9055 0.879829 25.8717 1.23893 27.805C1.38206 28.4389 1.71648 29.0134 2.19693 29.451C2.66283 29.8918 3.25954 30.1692 3.89693 30.241C5.95693 30.467 9.0546 30.5796 13.1899 30.579C17.3253 30.5783 20.4233 30.4657 22.4839 30.241C23.1213 30.1692 23.718 29.8918 24.1839 29.451C24.6644 29.0134 24.9988 28.4389 25.1419 27.805C25.503 25.8719 25.6566 23.9057 25.5999 21.94ZM8.56893 7.25598L10.5999 0.578979H8.90793L7.75693 4.979L6.56192 0.578979H4.80293L5.34393 2.13599L5.86293 3.69202C6.27968 4.85817 6.62598 6.04828 6.89993 7.25598V11.79H8.56893V7.25598ZM15.0879 9.08301V6.151C15.1358 5.4636 14.9707 4.77813 14.6149 4.18799C14.4132 3.91295 14.1475 3.69119 13.8409 3.54187C13.5342 3.39255 13.1958 3.32018 12.8549 3.33099C12.5132 3.3136 12.1726 3.38309 11.865 3.53296C11.5574 3.68282 11.2928 3.90816 11.0959 4.18799C10.7393 4.77781 10.5738 5.46345 10.6219 6.151V9.08301C10.5737 9.77025 10.7393 10.4555 11.0959 11.045C11.2927 11.3251 11.5572 11.5507 11.8648 11.7007C12.1724 11.8508 12.5131 11.9204 12.8549 11.903C13.1959 11.9137 13.5344 11.8411 13.841 11.6917C14.1477 11.5422 14.4133 11.3202 14.6149 11.045C14.9803 10.4591 15.1479 9.77133 15.0929 9.08301H15.0879ZM19.1709 11.79H20.6819V3.44397H19.1709V9.82703C18.8376 10.2937 18.5219 10.527 18.2239 10.527C17.9979 10.527 17.8779 10.406 17.8629 10.166C17.8383 9.97138 17.8306 9.77494 17.8399 9.57898V3.44397H16.3289V10.053C16.3122 10.471 16.3577 10.8893 16.4639 11.294C16.5373 11.4872 16.6718 11.6512 16.8468 11.7611C17.0219 11.871 17.228 11.9208 17.4339 11.903C17.7776 11.862 18.1091 11.7507 18.4079 11.576C18.7067 11.4014 18.9665 11.1672 19.1709 10.888V11.788V11.79Z" fill="#3D58A6"/>
</svg>
